<?xml version="1.0" encoding="iso-8859-1"?>
<!-- Uploaded to: SVG Repo, www.svgrepo.com, Generator: SVG Repo Mixer Tools -->
<svg fill="#000000" version="1.1" id="Layer_1" xmlns="http://www.w3.org/2000/svg" xmlns:xlink="http://www.w3.org/1999/xlink" 
	 viewBox="0 0 512 512" xml:space="preserve">
<g>
	<g>
		<path d="M208.271,355.797v-43.39h-34.712v-137.98l20.827-10.414c4.339-1.736,6.075-6.942,3.471-11.281
			c-1.736-4.339-6.942-6.075-11.281-3.471l-13.017,6.075v-15.62l20.827-10.414c4.339-1.736,6.075-6.942,3.471-11.281
			c-1.736-4.339-6.942-6.075-11.281-3.471l-13.017,6.075v-15.62l20.827-10.414c4.339-1.736,6.075-6.942,3.471-11.281
			c-1.736-4.339-6.942-6.075-10.414-4.339l-13.885,6.942v-15.62l20.827-10.414c4.339-1.736,6.075-6.942,3.471-11.281
			c-1.736-4.339-6.942-6.075-10.414-4.339L173.559,51.2V35.58l20.827-10.414c4.339-1.736,6.075-6.942,3.471-11.281
			c-1.736-4.339-6.942-6.075-10.414-4.339l-13.885,6.942v-7.81c0-5.207-3.471-8.678-8.678-8.678s-8.678,3.471-8.678,8.678v16.488
			L135.376,35.58c-4.339,2.603-6.075,7.81-4.339,11.281s4.339,5.207,7.81,5.207c1.736,0,2.603,0,3.471-0.868l13.885-6.942v15.62
			l-20.827,10.414c-4.339,2.603-6.075,7.81-4.339,11.281s4.339,5.207,7.81,5.207c1.736,0,2.603,0,3.471-0.868l13.885-6.942v15.62
			l-20.827,10.414c-4.339,1.736-6.075,6.942-3.471,11.281c0.868,3.471,3.471,5.207,6.942,5.207c1.736,0,2.603,0,3.471-0.868
			l13.885-6.942v15.62l-20.827,10.414c-4.339,1.736-6.075,6.942-3.471,11.281c0.868,3.471,3.471,5.207,6.942,5.207
			c1.736,0,2.603,0,3.471-0.868l13.885-6.942v15.62l-20.827,10.414c-4.339,1.736-6.075,6.942-3.471,11.281
			c0.868,3.471,3.471,5.207,6.942,5.207c1.736,0,2.603,0,3.471-0.868l13.885-6.942v129.302h-34.712v43.39h-17.356V512h121.492
			V355.797H208.271z M190.915,355.797h-52.068v-26.034h52.068V355.797z"/>
	</g>
</g>
<g>
	<g>
		<rect x="355.797" y="269.017" width="52.068" height="121.492"/>
	</g>
</g>
<g>
	<g>
		<path d="M407.864,251.661v-43.39h-17.356v-43.39h-86.78v43.39h-17.356V512h121.492V407.864h-69.424V251.661H407.864z
			 M321.085,208.271v-26.034h52.068v26.034H321.085z"/>
	</g>
</g>
</svg>